<svg width="12" height="12" viewBox="0 0 12 12" fill="none" xmlns="http://www.w3.org/2000/svg">
<rect x="0.5" y="0.5" width="11" height="11" rx="5.5" fill="#832E2E"/>
<g clip-path="url(#clip0_1_244)">
<path fill-rule="evenodd" clip-rule="evenodd" d="M8.28615 3.99942C8.20815 3.5275 8.46415 3.42961 8.28615 2.98102C7.89055 2.14983 6.81247 2.18565 6.02136 2.12174C5.13898 2.08792 4.24588 2.20441 3.43243 2.55807C3.23813 2.64253 3.05124 2.74187 2.87209 2.85474C2.71718 2.95233 2.73847 3.13791 2.83615 3.23914C2.1318 4.23655 2.53465 5.57538 1.97265 6.62528C1.86883 6.81294 1.73151 6.98122 1.64127 7.17649C1.5041 7.47332 1.49531 7.89864 1.80638 8.09575C2.2445 8.33092 2.48899 7.86532 2.70427 8.54025C3.77938 10.8936 5.94098 11.0261 7.99302 9.79918C8.17055 9.70043 8.35174 9.58882 8.4858 9.43367C8.79011 9.09122 8.75427 8.60965 8.761 8.18199C8.76475 7.93138 8.76538 7.68074 8.76294 7.43007C8.75336 6.41476 8.41685 5.00635 8.28615 3.99942Z" fill="white"/>
<path fill-rule="evenodd" clip-rule="evenodd" d="M3.91549 1.17692C5.15448 0.614896 6.55975 0.401765 7.91127 0.541563C8.57834 0.610456 9.23664 0.758262 9.86312 0.998355L9.91803 1.01958C10.0727 1.0791 10.2394 1.13818 10.3569 1.25934C10.4937 1.40015 10.5321 1.61308 10.4343 1.78702C10.3583 1.92217 10.2218 2.01912 10.0761 2.07086C10.1274 2.11288 10.1761 2.15974 10.2218 2.21207C10.2987 2.29974 10.3046 2.42477 10.2218 2.51126C10.0622 2.67793 9.8551 2.79852 9.63207 2.85632C9.65712 2.97733 9.64359 3.11127 9.58985 3.23187C9.43565 3.57807 9.00127 3.61933 8.667 3.59876L8.65692 3.59813L8.63834 3.81086C8.62844 3.9242 8.56056 4.01207 8.44541 4.02945C8.44137 4.03005 8.43731 4.03046 8.43329 4.03084C8.61551 4.68985 8.72561 5.36923 8.82723 6.0446C8.88032 6.39714 8.92783 6.7505 8.97333 7.10409L8.98844 7.22197C9.03692 7.60319 9.09753 7.98824 9.11854 8.37228C9.13733 8.72076 9.07086 9.05349 8.85611 9.3347C8.66339 9.58682 8.40056 9.77571 8.11793 9.91591C7.47935 10.2329 6.80722 10.4688 6.10096 10.5783L6.05385 10.5856C5.78122 10.6272 5.50034 10.6623 5.23066 10.5868C4.99371 10.5206 4.7452 10.3496 4.79874 10.0751C4.81672 9.98238 4.94642 9.97834 4.99086 10.0501L5.0011 10.0665C5.05442 10.151 5.11282 10.2296 5.20583 10.2733C5.3147 10.3246 5.44096 10.3389 5.55995 10.3404C5.89228 10.3442 6.23834 10.2614 6.55834 10.1783C7.15591 10.0232 7.76965 9.77026 8.25914 9.38702C8.46743 9.2242 8.6347 9.02056 8.69369 8.75854C8.76662 8.43551 8.69955 8.08238 8.66642 7.75773C8.59824 7.08783 8.51708 6.41919 8.43147 5.75129L8.4143 5.61773C8.3422 5.05935 8.26644 4.50076 8.23046 3.93914C8.21551 3.91874 8.20541 3.89551 8.20137 3.87005L8.19573 3.83349C8.19086 3.80217 8.19005 3.77349 8.19349 3.74702C8.19369 3.64561 8.19652 3.5448 8.20238 3.44337C8.20337 3.42521 8.2042 3.40702 8.2048 3.38904C8.09935 3.41228 7.99308 3.43106 7.88642 3.44702C7.13652 3.55995 6.3749 3.58824 5.61894 3.53207C5.24177 3.50397 4.86745 3.45571 4.4943 3.39531C4.30438 3.3646 4.1151 3.33066 3.92642 3.29268C3.79005 3.26541 3.65652 3.22844 3.52238 3.19369C3.38399 3.3951 3.30925 3.64298 3.32379 3.88642C3.34015 4.1642 3.5252 4.41611 3.47329 4.69995C3.42456 4.96559 3.19696 5.04795 2.97228 5.11373L2.87672 5.14135C2.80321 5.1628 2.74981 5.18353 2.73652 5.27187C2.71369 5.42359 2.74177 5.5943 2.74763 5.74682C2.7547 5.92723 2.76397 6.10763 2.76824 6.28803C2.77046 6.38137 2.77407 6.4751 2.77389 6.56844C2.77369 6.6347 2.76379 6.67995 2.73813 6.72276C2.75793 6.74763 2.77569 6.7745 2.79147 6.80298C2.79652 6.81228 2.78399 6.82215 2.77654 6.8145C2.75652 6.79369 2.73529 6.7749 2.71288 6.75811C2.70157 6.77207 2.68844 6.78622 2.67306 6.80137L2.67187 6.79975C2.62379 6.84763 2.54743 6.85228 2.4878 6.80137L2.47216 6.78781C2.42853 6.74955 2.39854 6.71771 2.38641 6.6545C2.3858 6.65127 2.38518 6.64803 2.38479 6.6448C2.27388 6.64096 2.16116 6.66721 2.06136 6.72238C1.90318 6.80985 1.79186 6.9345 1.72603 7.08844C1.75227 7.11914 1.78297 7.14662 1.81873 7.16965C1.82378 7.17308 1.81934 7.18056 1.81388 7.17793C1.77732 7.16076 1.74459 7.13955 1.7153 7.1147C1.69166 7.17531 1.6751 7.24036 1.66499 7.30925C1.62944 7.55248 1.69287 7.84965 1.91267 7.98824C2.00782 8.04824 2.11651 8.08076 2.22924 8.08116C2.28417 8.08135 2.33166 8.07207 2.385 8.05894C2.42116 8.05005 2.45712 8.03712 2.49489 8.03712C2.52723 8.03712 2.55712 8.04521 2.5848 8.06137L2.57712 8.06203C2.55846 8.06379 2.56205 8.06458 2.58803 8.06458C2.66884 8.06803 2.71508 8.15005 2.67793 8.22137L2.67304 8.23238C2.67203 8.2346 2.67114 8.23644 2.67048 8.23791L2.66753 8.25682C2.66725 8.25862 2.66694 8.26048 2.66662 8.26238L2.66549 8.2662C2.66529 8.26682 2.66506 8.26743 2.6648 8.26803L2.78599 8.45284C2.93458 8.67892 3.08648 8.90415 3.25935 9.11066C3.38056 9.25551 3.50904 9.39753 3.6448 9.52904C3.76682 9.64723 3.91308 9.7042 4.05127 9.79712C4.12502 9.84642 4.14662 9.94965 4.07957 10.0161C3.88278 10.2115 3.60419 10.0563 3.44278 9.89753C3.29005 9.74702 3.15813 9.56601 3.0444 9.3848C2.84258 9.06258 2.68197 8.71995 2.61167 8.34803C2.58238 8.3749 2.545 8.39167 2.50722 8.4048C2.43146 8.43106 2.34803 8.44197 2.26803 8.4448C2.11469 8.44985 1.96116 8.41268 1.82318 8.34682C1.26176 8.07914 1.17934 7.27753 1.52257 6.8048C1.47629 6.67058 1.45044 6.52496 1.42236 6.40076L1.40958 6.34527C1.26763 5.72521 1.17235 5.07238 1.42398 4.4648C1.45631 4.38642 1.49267 4.31005 1.5357 4.23692C1.57025 4.17813 1.62964 4.11551 1.64601 4.04864C1.68237 3.90177 1.45792 3.74743 1.39247 3.63086C1.3155 3.49409 1.30459 3.33268 1.40944 3.20761C1.42277 3.19187 1.4373 3.17731 1.45308 3.1646C1.35368 2.9844 1.34904 2.75773 1.47994 2.57995C1.56601 2.46277 1.69732 2.38075 1.84075 2.35591C1.92843 2.34075 2.03388 2.34641 2.13025 2.37348C2.65791 1.88358 3.25995 1.47429 3.91549 1.17692ZM1.88923 7.30682C2.03006 7.18258 2.18561 7.11753 2.37753 7.13389C2.57046 7.15044 2.80278 7.23026 2.91609 7.39571C3.00561 7.52642 2.82318 7.71813 2.69187 7.61995C2.57228 7.53046 2.49246 7.42945 2.34399 7.38137C2.21064 7.33834 2.04559 7.31066 1.906 7.33531C1.89064 7.33793 1.87531 7.31894 1.88923 7.30682Z" fill="black"/>
</g>
<defs>
<clipPath id="clip0_1_244">
<rect width="10" height="11.4545" fill="white" transform="translate(0.5 0.5)"/>
</clipPath>
</defs>
</svg>
