<svg width="147" height="149" viewBox="0 0 147 149" fill="none" xmlns="http://www.w3.org/2000/svg">
<rect x="0.5" width="146.5" height="149" fill="#F7DECE"/>
<g clip-path="url(#clip0_1_242)">
<path fill-rule="evenodd" clip-rule="evenodd" d="M118.095 62.7334C125.435 62.7334 129.623 64.4017 131.158 64.5317L131.205 64.5352C131.843 64.5783 132.416 64.6347 133.016 64.8803C135.226 65.7798 135.586 68.2291 134.296 69.7727C134.206 72.9668 134.603 76.6988 133.921 79.9032C133.08 93.4119 127.07 95.6918 123.653 96.5238C121.938 96.9416 119.905 97.1078 118.083 96.6669C114.975 96.5443 111.902 95.516 109.273 93.7249C105.611 91.2288 102.892 87.3922 102.009 82.8391C101.591 80.6687 101.395 78.4097 101.623 76.2036L101.657 75.8997C100.467 75.298 99.0872 75.1841 97.6656 75.131C96.9864 75.1055 96.3169 75.0826 95.6668 75.1131C95.0311 75.1881 94.4028 75.288 93.773 75.4241C93.0851 75.6435 92.4353 76.0055 91.8355 76.579L91.7942 77.416C91.6816 79.5069 91.4218 81.6041 91.0212 83.6555C90.4296 86.6823 89.4783 89.5731 87.4535 91.7199C86.7681 92.8021 85.92 93.7679 84.8905 94.6041C81.1502 97.6479 76.0687 98.7654 71.4053 98.3446C61.9374 97.4906 56.4647 89.5465 55.2036 86.151L55.1282 85.9453C54.2173 83.4209 53.4912 80.1456 50.6124 79.6032L50.0001 79.4869C48.6864 79.2263 47.4741 78.8634 46.7039 77.5087C46.3661 76.9172 46.1926 76.2558 46.1501 75.5814C45.7004 75.6179 45.2516 75.6527 44.8045 75.6866C41.237 76.484 19.8392 77.1602 18.1312 77.1602C18.1312 77.1602 14.8481 78.6207 13.4619 77.4891C12.5012 76.7021 12.1851 75.6534 12.714 74.4652C13.512 72.6776 17.1937 71.6023 18.8285 71.2618C18.8285 71.2618 45.2101 71.4934 47.1088 71.1129C48.2837 69.8325 50.3851 70.0077 52.1412 69.8052C53.5947 68.7097 55.6282 67.9759 57.2346 67.4847C57.562 67.3536 57.8863 67.2268 58.2015 67.1073C61.1463 65.9988 64.2074 65.4117 67.3151 65.0964C70.5197 64.7745 73.7337 64.9202 76.9196 65.3815C78.2621 65.574 79.592 65.8229 80.9129 66.1485C83.2776 66.478 85.6285 67.0207 87.9942 67.6645L88.4676 67.7946C90.9586 68.485 93.5185 69.082 96.0974 68.6141C98.1966 68.2356 100.216 67.3816 102.151 66.4581L102.403 66.3373C106.659 64.2833 113.306 62.7334 118.095 62.7334ZM80.6568 70.2437C79.0864 69.8786 78.4156 72.4377 79.991 72.8038C81.1068 73.0631 82.0521 73.6577 82.691 74.665L82.7582 74.7746C83.6153 76.2163 85.783 74.8854 84.9199 73.4344C83.9487 71.8015 82.4395 70.6578 80.6568 70.2437ZM126.652 68.6569C126.098 68.2447 125.261 68.5507 124.939 69.1332C124.585 69.7745 124.817 70.4887 125.336 70.9083L125.388 70.9492C125.864 71.3035 126.327 71.9386 126.385 72.5893L126.391 72.6707C126.453 74.3736 128.957 74.3823 128.894 72.6707C128.833 70.9964 127.916 69.5974 126.652 68.6569Z" fill="black"/>
</g>
<defs>
<clipPath id="clip0_1_242">
<rect width="122.582" height="45.6122" fill="white" transform="translate(12.4592 57.7755)"/>
</clipPath>
</defs>
</svg>
